ISO-10303-21;
HEADER;
FILE_DESCRIPTION(('FreeCAD Model'),'2;1');
FILE_NAME('Open CASCADE Shape Model','2026-08-05T13:27:59',(''),(''),
  'Open CASCADE STEP processor 7.8','FreeCAD','Unknown');
FILE_SCHEMA(('AUTOMOTIVE_DESIGN { 1 0 10303 214 1 1 1 1 }'));
ENDSEC;
DATA;
#1 = APPLICATION_PROTOCOL_DEFINITION('international standard',
  'automotive_design',2000,#2);
#2 = APPLICATION_CONTEXT(
  'core data for automotive mechanical design processes');
#3 = SHAPE_DEFINITION_REPRESENTATION(#4,#10);
#4 = PRODUCT_DEFINITION_SHAPE('','',#5);
#5 = PRODUCT_DEFINITION('design','',#6,#9);
#6 = PRODUCT_DEFINITION_FORMATION('','',#7);
#7 = PRODUCT('Body','Body','',(#8));
#8 = PRODUCT_CONTEXT('',#2,'mechanical');
#9 = PRODUCT_DEFINITION_CONTEXT('part definition',#2,'design');
#10 = ADVANCED_BREP_SHAPE_REPRESENTATION('',(#11,#15),#477);
#11 = AXIS2_PLACEMENT_3D('',#12,#13,#14);
#12 = CARTESIAN_POINT('',(0.,0.,0.));
#13 = DIRECTION('',(0.,0.,1.));
#14 = DIRECTION('',(1.,0.,-0.));
#15 = MANIFOLD_SOLID_BREP('',#16);
#16 = CLOSED_SHELL('',(#17,#57,#88,#119,#163,#240,#257,#274,#286,#311,
    #336,#361,#386,#411,#431,#460));
#17 = ADVANCED_FACE('',(#18),#52,.F.);
#18 = FACE_BOUND('',#19,.F.);
#19 = EDGE_LOOP('',(#20,#30,#38,#46));
#20 = ORIENTED_EDGE('',*,*,#21,.T.);
#21 = EDGE_CURVE('',#22,#24,#26,.T.);
#22 = VERTEX_POINT('',#23);
#23 = CARTESIAN_POINT('',(0.,6.5,0.));
#24 = VERTEX_POINT('',#25);
#25 = CARTESIAN_POINT('',(0.,6.5,4.));
#26 = LINE('',#27,#28);
#27 = CARTESIAN_POINT('',(0.,6.5,0.));
#28 = VECTOR('',#29,1.);
#29 = DIRECTION('',(0.,0.,1.));
#30 = ORIENTED_EDGE('',*,*,#31,.T.);
#31 = EDGE_CURVE('',#24,#32,#34,.T.);
#32 = VERTEX_POINT('',#33);
#33 = CARTESIAN_POINT('',(-5.629165124599,3.25,4.));
#34 = LINE('',#35,#36);
#35 = CARTESIAN_POINT('',(0.,6.5,4.));
#36 = VECTOR('',#37,1.);
#37 = DIRECTION('',(-0.866025403784,-0.5,0.));
#38 = ORIENTED_EDGE('',*,*,#39,.F.);
#39 = EDGE_CURVE('',#40,#32,#42,.T.);
#40 = VERTEX_POINT('',#41);
#41 = CARTESIAN_POINT('',(-5.629165124599,3.25,0.));
#42 = LINE('',#43,#44);
#43 = CARTESIAN_POINT('',(-5.629165124599,3.25,0.));
#44 = VECTOR('',#45,1.);
#45 = DIRECTION('',(0.,0.,1.));
#46 = ORIENTED_EDGE('',*,*,#47,.F.);
#47 = EDGE_CURVE('',#22,#40,#48,.T.);
#48 = LINE('',#49,#50);
#49 = CARTESIAN_POINT('',(0.,6.5,0.));
#50 = VECTOR('',#51,1.);
#51 = DIRECTION('',(-0.866025403784,-0.5,0.));
#52 = PLANE('',#53);
#53 = AXIS2_PLACEMENT_3D('',#54,#55,#56);
#54 = CARTESIAN_POINT('',(0.,6.5,0.));
#55 = DIRECTION('',(0.5,-0.866025403784,0.));
#56 = DIRECTION('',(-0.866025403784,-0.5,0.));
#57 = ADVANCED_FACE('',(#58),#83,.F.);
#58 = FACE_BOUND('',#59,.F.);
#59 = EDGE_LOOP('',(#60,#70,#76,#77));
#60 = ORIENTED_EDGE('',*,*,#61,.T.);
#61 = EDGE_CURVE('',#62,#64,#66,.T.);
#62 = VERTEX_POINT('',#63);
#63 = CARTESIAN_POINT('',(5.629165124599,3.25,0.));
#64 = VERTEX_POINT('',#65);
#65 = CARTESIAN_POINT('',(5.629165124599,3.25,4.));
#66 = LINE('',#67,#68);
#67 = CARTESIAN_POINT('',(5.629165124599,3.25,0.));
#68 = VECTOR('',#69,1.);
#69 = DIRECTION('',(0.,0.,1.));
#70 = ORIENTED_EDGE('',*,*,#71,.T.);
#71 = EDGE_CURVE('',#64,#24,#72,.T.);
#72 = LINE('',#73,#74);
#73 = CARTESIAN_POINT('',(5.629165124599,3.25,4.));
#74 = VECTOR('',#75,1.);
#75 = DIRECTION('',(-0.866025403784,0.5,0.));
#76 = ORIENTED_EDGE('',*,*,#21,.F.);
#77 = ORIENTED_EDGE('',*,*,#78,.F.);
#78 = EDGE_CURVE('',#62,#22,#79,.T.);
#79 = LINE('',#80,#81);
#80 = CARTESIAN_POINT('',(5.629165124599,3.25,0.));
#81 = VECTOR('',#82,1.);
#82 = DIRECTION('',(-0.866025403784,0.5,0.));
#83 = PLANE('',#84);
#84 = AXIS2_PLACEMENT_3D('',#85,#86,#87);
#85 = CARTESIAN_POINT('',(5.629165124599,3.25,0.));
#86 = DIRECTION('',(-0.5,-0.866025403784,0.));
#87 = DIRECTION('',(-0.866025403784,0.5,0.));
#88 = ADVANCED_FACE('',(#89),#114,.F.);
#89 = FACE_BOUND('',#90,.F.);
#90 = EDGE_LOOP('',(#91,#92,#100,#108));
#91 = ORIENTED_EDGE('',*,*,#39,.T.);
#92 = ORIENTED_EDGE('',*,*,#93,.T.);
#93 = EDGE_CURVE('',#32,#94,#96,.T.);
#94 = VERTEX_POINT('',#95);
#95 = CARTESIAN_POINT('',(-5.629165124599,-3.25,4.));
#96 = LINE('',#97,#98);
#97 = CARTESIAN_POINT('',(-5.629165124599,3.25,4.));
#98 = VECTOR('',#99,1.);
#99 = DIRECTION('',(-1.4E-16,-1.,0.));
#100 = ORIENTED_EDGE('',*,*,#101,.F.);
#101 = EDGE_CURVE('',#102,#94,#104,.T.);
#102 = VERTEX_POINT('',#103);
#103 = CARTESIAN_POINT('',(-5.629165124599,-3.25,0.));
#104 = LINE('',#105,#106);
#105 = CARTESIAN_POINT('',(-5.629165124599,-3.25,0.));
#106 = VECTOR('',#107,1.);
#107 = DIRECTION('',(0.,0.,1.));
#108 = ORIENTED_EDGE('',*,*,#109,.F.);
#109 = EDGE_CURVE('',#40,#102,#110,.T.);
#110 = LINE('',#111,#112);
#111 = CARTESIAN_POINT('',(-5.629165124599,3.25,0.));
#112 = VECTOR('',#113,1.);
#113 = DIRECTION('',(-1.4E-16,-1.,0.));
#114 = PLANE('',#115);
#115 = AXIS2_PLACEMENT_3D('',#116,#117,#118);
#116 = CARTESIAN_POINT('',(-5.629165124599,3.25,0.));
#117 = DIRECTION('',(1.,-1.4E-16,0.));
#118 = DIRECTION('',(-1.4E-16,-1.,0.));
#119 = ADVANCED_FACE('',(#120,#147),#158,.F.);
#120 = FACE_BOUND('',#121,.F.);
#121 = EDGE_LOOP('',(#122,#123,#124,#132,#140,#146));
#122 = ORIENTED_EDGE('',*,*,#47,.T.);
#123 = ORIENTED_EDGE('',*,*,#109,.T.);
#124 = ORIENTED_EDGE('',*,*,#125,.T.);
#125 = EDGE_CURVE('',#102,#126,#128,.T.);
#126 = VERTEX_POINT('',#127);
#127 = CARTESIAN_POINT('',(0.,-6.5,0.));
#128 = LINE('',#129,#130);
#129 = CARTESIAN_POINT('',(-5.629165124599,-3.25,0.));
#130 = VECTOR('',#131,1.);
#131 = DIRECTION('',(0.866025403784,-0.5,0.));
#132 = ORIENTED_EDGE('',*,*,#133,.T.);
#133 = EDGE_CURVE('',#126,#134,#136,.T.);
#134 = VERTEX_POINT('',#135);
#135 = CARTESIAN_POINT('',(5.629165124599,-3.25,0.));
#136 = LINE('',#137,#138);
#137 = CARTESIAN_POINT('',(0.,-6.5,0.));
#138 = VECTOR('',#139,1.);
#139 = DIRECTION('',(0.866025403784,0.5,0.));
#140 = ORIENTED_EDGE('',*,*,#141,.T.);
#141 = EDGE_CURVE('',#134,#62,#142,.T.);
#142 = LINE('',#143,#144);
#143 = CARTESIAN_POINT('',(5.629165124599,-3.25,0.));
#144 = VECTOR('',#145,1.);
#145 = DIRECTION('',(-1.4E-16,1.,0.));
#146 = ORIENTED_EDGE('',*,*,#78,.T.);
#147 = FACE_BOUND('',#148,.F.);
#148 = EDGE_LOOP('',(#149));
#149 = ORIENTED_EDGE('',*,*,#150,.T.);
#150 = EDGE_CURVE('',#151,#151,#153,.T.);
#151 = VERTEX_POINT('',#152);
#152 = CARTESIAN_POINT('',(1.6,0.,0.));
#153 = CIRCLE('',#154,1.6);
#154 = AXIS2_PLACEMENT_3D('',#155,#156,#157);
#155 = CARTESIAN_POINT('',(0.,0.,0.));
#156 = DIRECTION('',(0.,0.,-1.));
#157 = DIRECTION('',(1.,0.,0.));
#158 = PLANE('',#159);
#159 = AXIS2_PLACEMENT_3D('',#160,#161,#162);
#160 = CARTESIAN_POINT('',(2.7E-16,9.E-17,0.));
#161 = DIRECTION('',(0.,0.,1.));
#162 = DIRECTION('',(1.,0.,0.));
#163 = ADVANCED_FACE('',(#164,#175,#186,#213,#224),#235,.F.);
#164 = FACE_BOUND('',#165,.F.);
#165 = EDGE_LOOP('',(#166));
#166 = ORIENTED_EDGE('',*,*,#167,.T.);
#167 = EDGE_CURVE('',#168,#168,#170,.T.);
#168 = VERTEX_POINT('',#169);
#169 = CARTESIAN_POINT('',(10.5,0.,4.));
#170 = CIRCLE('',#171,10.5);
#171 = AXIS2_PLACEMENT_3D('',#172,#173,#174);
#172 = CARTESIAN_POINT('',(0.,0.,4.));
#173 = DIRECTION('',(0.,0.,1.));
#174 = DIRECTION('',(1.,0.,0.));
#175 = FACE_BOUND('',#176,.F.);
#176 = EDGE_LOOP('',(#177));
#177 = ORIENTED_EDGE('',*,*,#178,.T.);
#178 = EDGE_CURVE('',#179,#179,#181,.T.);
#179 = VERTEX_POINT('',#180);
#180 = CARTESIAN_POINT('',(-1.008731654743,-7.67451179632,4.));
#181 = CIRCLE('',#182,1.25);
#182 = AXIS2_PLACEMENT_3D('',#183,#184,#185);
#183 = CARTESIAN_POINT('',(-2.258731654743,-7.67451179632,4.));
#184 = DIRECTION('',(0.,0.,-1.));
#185 = DIRECTION('',(1.,0.,0.));
#186 = FACE_BOUND('',#187,.F.);
#187 = EDGE_LOOP('',(#188,#189,#190,#198,#206,#212));
#188 = ORIENTED_EDGE('',*,*,#31,.F.);
#189 = ORIENTED_EDGE('',*,*,#71,.F.);
#190 = ORIENTED_EDGE('',*,*,#191,.F.);
#191 = EDGE_CURVE('',#192,#64,#194,.T.);
#192 = VERTEX_POINT('',#193);
#193 = CARTESIAN_POINT('',(5.629165124599,-3.25,4.));
#194 = LINE('',#195,#196);
#195 = CARTESIAN_POINT('',(5.629165124599,-3.25,4.));
#196 = VECTOR('',#197,1.);
#197 = DIRECTION('',(-1.4E-16,1.,0.));
#198 = ORIENTED_EDGE('',*,*,#199,.F.);
#199 = EDGE_CURVE('',#200,#192,#202,.T.);
#200 = VERTEX_POINT('',#201);
#201 = CARTESIAN_POINT('',(0.,-6.5,4.));
#202 = LINE('',#203,#204);
#203 = CARTESIAN_POINT('',(0.,-6.5,4.));
#204 = VECTOR('',#205,1.);
#205 = DIRECTION('',(0.866025403784,0.5,0.));
#206 = ORIENTED_EDGE('',*,*,#207,.F.);
#207 = EDGE_CURVE('',#94,#200,#208,.T.);
#208 = LINE('',#209,#210);
#209 = CARTESIAN_POINT('',(-5.629165124599,-3.25,4.));
#210 = VECTOR('',#211,1.);
#211 = DIRECTION('',(0.866025403784,-0.5,0.));
#212 = ORIENTED_EDGE('',*,*,#93,.F.);
#213 = FACE_BOUND('',#214,.F.);
#214 = EDGE_LOOP('',(#215));
#215 = ORIENTED_EDGE('',*,*,#216,.T.);
#216 = EDGE_CURVE('',#217,#217,#219,.T.);
#217 = VERTEX_POINT('',#218);
#218 = CARTESIAN_POINT('',(-6.141956349885,4.710843136769,4.));
#219 = CIRCLE('',#220,1.25);
#220 = AXIS2_PLACEMENT_3D('',#221,#222,#223);
#221 = CARTESIAN_POINT('',(-5.516956349885,5.7933748915,4.));
#222 = DIRECTION('',(-0.,0.,-1.));
#223 = DIRECTION('',(-0.5,-0.866025403784,0.));
#224 = FACE_BOUND('',#225,.F.);
#225 = EDGE_LOOP('',(#226));
#226 = ORIENTED_EDGE('',*,*,#227,.T.);
#227 = EDGE_CURVE('',#228,#228,#230,.T.);
#228 = VERTEX_POINT('',#229);
#229 = CARTESIAN_POINT('',(7.150688004628,2.963668659551,4.));
#230 = CIRCLE('',#231,1.25);
#231 = AXIS2_PLACEMENT_3D('',#232,#233,#234);
#232 = CARTESIAN_POINT('',(7.775688004628,1.881136904821,4.));
#233 = DIRECTION('',(0.,0.,-1.));
#234 = DIRECTION('',(-0.5,0.866025403784,0.));
#235 = PLANE('',#236);
#236 = AXIS2_PLACEMENT_3D('',#237,#238,#239);
#237 = CARTESIAN_POINT('',(-5.209295743007E-16,9.230319459916E-17,4.));
#238 = DIRECTION('',(0.,0.,1.));
#239 = DIRECTION('',(1.,0.,0.));
#240 = ADVANCED_FACE('',(#241),#252,.F.);
#241 = FACE_BOUND('',#242,.F.);
#242 = EDGE_LOOP('',(#243,#249,#250,#251));
#243 = ORIENTED_EDGE('',*,*,#244,.T.);
#244 = EDGE_CURVE('',#134,#192,#245,.T.);
#245 = LINE('',#246,#247);
#246 = CARTESIAN_POINT('',(5.629165124599,-3.25,0.));
#247 = VECTOR('',#248,1.);
#248 = DIRECTION('',(0.,0.,1.));
#249 = ORIENTED_EDGE('',*,*,#191,.T.);
#250 = ORIENTED_EDGE('',*,*,#61,.F.);
#251 = ORIENTED_EDGE('',*,*,#141,.F.);
#252 = PLANE('',#253);
#253 = AXIS2_PLACEMENT_3D('',#254,#255,#256);
#254 = CARTESIAN_POINT('',(5.629165124599,-3.25,0.));
#255 = DIRECTION('',(-1.,-1.4E-16,0.));
#256 = DIRECTION('',(-1.4E-16,1.,0.));
#257 = ADVANCED_FACE('',(#258),#269,.F.);
#258 = FACE_BOUND('',#259,.F.);
#259 = EDGE_LOOP('',(#260,#261,#262,#268));
#260 = ORIENTED_EDGE('',*,*,#101,.T.);
#261 = ORIENTED_EDGE('',*,*,#207,.T.);
#262 = ORIENTED_EDGE('',*,*,#263,.F.);
#263 = EDGE_CURVE('',#126,#200,#264,.T.);
#264 = LINE('',#265,#266);
#265 = CARTESIAN_POINT('',(0.,-6.5,0.));
#266 = VECTOR('',#267,1.);
#267 = DIRECTION('',(0.,0.,1.));
#268 = ORIENTED_EDGE('',*,*,#125,.F.);
#269 = PLANE('',#270);
#270 = AXIS2_PLACEMENT_3D('',#271,#272,#273);
#271 = CARTESIAN_POINT('',(-5.629165124599,-3.25,0.));
#272 = DIRECTION('',(0.5,0.866025403784,0.));
#273 = DIRECTION('',(0.866025403784,-0.5,0.));
#274 = ADVANCED_FACE('',(#275),#281,.F.);
#275 = FACE_BOUND('',#276,.F.);
#276 = EDGE_LOOP('',(#277,#278,#279,#280));
#277 = ORIENTED_EDGE('',*,*,#263,.T.);
#278 = ORIENTED_EDGE('',*,*,#199,.T.);
#279 = ORIENTED_EDGE('',*,*,#244,.F.);
#280 = ORIENTED_EDGE('',*,*,#133,.F.);
#281 = PLANE('',#282);
#282 = AXIS2_PLACEMENT_3D('',#283,#284,#285);
#283 = CARTESIAN_POINT('',(0.,-6.5,0.));
#284 = DIRECTION('',(-0.5,0.866025403784,0.));
#285 = DIRECTION('',(0.866025403784,0.5,0.));
#286 = ADVANCED_FACE('',(#287),#306,.F.);
#287 = FACE_BOUND('',#288,.F.);
#288 = EDGE_LOOP('',(#289,#290,#298,#305));
#289 = ORIENTED_EDGE('',*,*,#150,.F.);
#290 = ORIENTED_EDGE('',*,*,#291,.T.);
#291 = EDGE_CURVE('',#151,#292,#294,.T.);
#292 = VERTEX_POINT('',#293);
#293 = CARTESIAN_POINT('',(1.6,0.,4.));
#294 = LINE('',#295,#296);
#295 = CARTESIAN_POINT('',(1.6,0.,0.));
#296 = VECTOR('',#297,1.);
#297 = DIRECTION('',(0.,0.,1.));
#298 = ORIENTED_EDGE('',*,*,#299,.T.);
#299 = EDGE_CURVE('',#292,#292,#300,.T.);
#300 = CIRCLE('',#301,1.6);
#301 = AXIS2_PLACEMENT_3D('',#302,#303,#304);
#302 = CARTESIAN_POINT('',(0.,0.,4.));
#303 = DIRECTION('',(0.,0.,-1.));
#304 = DIRECTION('',(1.,0.,0.));
#305 = ORIENTED_EDGE('',*,*,#291,.F.);
#306 = CYLINDRICAL_SURFACE('',#307,1.6);
#307 = AXIS2_PLACEMENT_3D('',#308,#309,#310);
#308 = CARTESIAN_POINT('',(0.,0.,0.));
#309 = DIRECTION('',(0.,0.,-1.));
#310 = DIRECTION('',(1.,0.,0.));
#311 = ADVANCED_FACE('',(#312),#331,.T.);
#312 = FACE_BOUND('',#313,.F.);
#313 = EDGE_LOOP('',(#314,#322,#329,#330));
#314 = ORIENTED_EDGE('',*,*,#315,.T.);
#315 = EDGE_CURVE('',#168,#316,#318,.T.);
#316 = VERTEX_POINT('',#317);
#317 = CARTESIAN_POINT('',(10.5,0.,7.));
#318 = LINE('',#319,#320);
#319 = CARTESIAN_POINT('',(10.5,0.,4.));
#320 = VECTOR('',#321,1.);
#321 = DIRECTION('',(0.,0.,1.));
#322 = ORIENTED_EDGE('',*,*,#323,.T.);
#323 = EDGE_CURVE('',#316,#316,#324,.T.);
#324 = CIRCLE('',#325,10.5);
#325 = AXIS2_PLACEMENT_3D('',#326,#327,#328);
#326 = CARTESIAN_POINT('',(0.,0.,7.));
#327 = DIRECTION('',(0.,0.,1.));
#328 = DIRECTION('',(1.,0.,0.));
#329 = ORIENTED_EDGE('',*,*,#315,.F.);
#330 = ORIENTED_EDGE('',*,*,#167,.F.);
#331 = CYLINDRICAL_SURFACE('',#332,10.5);
#332 = AXIS2_PLACEMENT_3D('',#333,#334,#335);
#333 = CARTESIAN_POINT('',(0.,0.,4.));
#334 = DIRECTION('',(-0.,-0.,-1.));
#335 = DIRECTION('',(1.,0.,0.));
#336 = ADVANCED_FACE('',(#337),#356,.F.);
#337 = FACE_BOUND('',#338,.F.);
#338 = EDGE_LOOP('',(#339,#347,#354,#355));
#339 = ORIENTED_EDGE('',*,*,#340,.T.);
#340 = EDGE_CURVE('',#179,#341,#343,.T.);
#341 = VERTEX_POINT('',#342);
#342 = CARTESIAN_POINT('',(-1.008731654743,-7.67451179632,7.));
#343 = LINE('',#344,#345);
#344 = CARTESIAN_POINT('',(-1.008731654743,-7.67451179632,4.));
#345 = VECTOR('',#346,1.);
#346 = DIRECTION('',(0.,0.,1.));
#347 = ORIENTED_EDGE('',*,*,#348,.T.);
#348 = EDGE_CURVE('',#341,#341,#349,.T.);
#349 = CIRCLE('',#350,1.25);
#350 = AXIS2_PLACEMENT_3D('',#351,#352,#353);
#351 = CARTESIAN_POINT('',(-2.258731654743,-7.67451179632,7.));
#352 = DIRECTION('',(0.,0.,-1.));
#353 = DIRECTION('',(1.,0.,0.));
#354 = ORIENTED_EDGE('',*,*,#340,.F.);
#355 = ORIENTED_EDGE('',*,*,#178,.F.);
#356 = CYLINDRICAL_SURFACE('',#357,1.25);
#357 = AXIS2_PLACEMENT_3D('',#358,#359,#360);
#358 = CARTESIAN_POINT('',(-2.258731654743,-7.67451179632,4.));
#359 = DIRECTION('',(0.,0.,-1.));
#360 = DIRECTION('',(1.,0.,0.));
#361 = ADVANCED_FACE('',(#362),#381,.F.);
#362 = FACE_BOUND('',#363,.F.);
#363 = EDGE_LOOP('',(#364,#372,#379,#380));
#364 = ORIENTED_EDGE('',*,*,#365,.T.);
#365 = EDGE_CURVE('',#217,#366,#368,.T.);
#366 = VERTEX_POINT('',#367);
#367 = CARTESIAN_POINT('',(-6.141956349885,4.710843136769,7.));
#368 = LINE('',#369,#370);
#369 = CARTESIAN_POINT('',(-6.141956349885,4.710843136769,4.));
#370 = VECTOR('',#371,1.);
#371 = DIRECTION('',(0.,0.,1.));
#372 = ORIENTED_EDGE('',*,*,#373,.T.);
#373 = EDGE_CURVE('',#366,#366,#374,.T.);
#374 = CIRCLE('',#375,1.25);
#375 = AXIS2_PLACEMENT_3D('',#376,#377,#378);
#376 = CARTESIAN_POINT('',(-5.516956349885,5.7933748915,7.));
#377 = DIRECTION('',(-0.,0.,-1.));
#378 = DIRECTION('',(-0.5,-0.866025403784,0.));
#379 = ORIENTED_EDGE('',*,*,#365,.F.);
#380 = ORIENTED_EDGE('',*,*,#216,.F.);
#381 = CYLINDRICAL_SURFACE('',#382,1.25);
#382 = AXIS2_PLACEMENT_3D('',#383,#384,#385);
#383 = CARTESIAN_POINT('',(-5.516956349885,5.7933748915,4.));
#384 = DIRECTION('',(0.,-0.,-1.));
#385 = DIRECTION('',(-0.5,-0.866025403784,0.));
#386 = ADVANCED_FACE('',(#387),#406,.F.);
#387 = FACE_BOUND('',#388,.F.);
#388 = EDGE_LOOP('',(#389,#397,#404,#405));
#389 = ORIENTED_EDGE('',*,*,#390,.T.);
#390 = EDGE_CURVE('',#228,#391,#393,.T.);
#391 = VERTEX_POINT('',#392);
#392 = CARTESIAN_POINT('',(7.150688004628,2.963668659551,7.));
#393 = LINE('',#394,#395);
#394 = CARTESIAN_POINT('',(7.150688004628,2.963668659551,4.));
#395 = VECTOR('',#396,1.);
#396 = DIRECTION('',(0.,0.,1.));
#397 = ORIENTED_EDGE('',*,*,#398,.T.);
#398 = EDGE_CURVE('',#391,#391,#399,.T.);
#399 = CIRCLE('',#400,1.25);
#400 = AXIS2_PLACEMENT_3D('',#401,#402,#403);
#401 = CARTESIAN_POINT('',(7.775688004628,1.881136904821,7.));
#402 = DIRECTION('',(0.,0.,-1.));
#403 = DIRECTION('',(-0.5,0.866025403784,0.));
#404 = ORIENTED_EDGE('',*,*,#390,.F.);
#405 = ORIENTED_EDGE('',*,*,#227,.F.);
#406 = CYLINDRICAL_SURFACE('',#407,1.25);
#407 = AXIS2_PLACEMENT_3D('',#408,#409,#410);
#408 = CARTESIAN_POINT('',(7.775688004628,1.881136904821,4.));
#409 = DIRECTION('',(-0.,0.,-1.));
#410 = DIRECTION('',(-0.5,0.866025403784,0.));
#411 = ADVANCED_FACE('',(#412,#423),#426,.T.);
#412 = FACE_BOUND('',#413,.T.);
#413 = EDGE_LOOP('',(#414));
#414 = ORIENTED_EDGE('',*,*,#415,.T.);
#415 = EDGE_CURVE('',#416,#416,#418,.T.);
#416 = VERTEX_POINT('',#417);
#417 = CARTESIAN_POINT('',(4.,0.,4.));
#418 = CIRCLE('',#419,4.);
#419 = AXIS2_PLACEMENT_3D('',#420,#421,#422);
#420 = CARTESIAN_POINT('',(0.,0.,4.));
#421 = DIRECTION('',(0.,0.,1.));
#422 = DIRECTION('',(1.,0.,0.));
#423 = FACE_BOUND('',#424,.T.);
#424 = EDGE_LOOP('',(#425));
#425 = ORIENTED_EDGE('',*,*,#299,.T.);
#426 = PLANE('',#427);
#427 = AXIS2_PLACEMENT_3D('',#428,#429,#430);
#428 = CARTESIAN_POINT('',(-2.563950248511E-16,3.49503809816E-16,4.));
#429 = DIRECTION('',(0.,0.,1.));
#430 = DIRECTION('',(1.,0.,0.));
#431 = ADVANCED_FACE('',(#432,#435,#438,#449,#452),#455,.T.);
#432 = FACE_BOUND('',#433,.T.);
#433 = EDGE_LOOP('',(#434));
#434 = ORIENTED_EDGE('',*,*,#323,.T.);
#435 = FACE_BOUND('',#436,.T.);
#436 = EDGE_LOOP('',(#437));
#437 = ORIENTED_EDGE('',*,*,#348,.T.);
#438 = FACE_BOUND('',#439,.T.);
#439 = EDGE_LOOP('',(#440));
#440 = ORIENTED_EDGE('',*,*,#441,.F.);
#441 = EDGE_CURVE('',#442,#442,#444,.T.);
#442 = VERTEX_POINT('',#443);
#443 = CARTESIAN_POINT('',(4.,0.,7.));
#444 = CIRCLE('',#445,4.);
#445 = AXIS2_PLACEMENT_3D('',#446,#447,#448);
#446 = CARTESIAN_POINT('',(0.,0.,7.));
#447 = DIRECTION('',(0.,0.,1.));
#448 = DIRECTION('',(1.,0.,0.));
#449 = FACE_BOUND('',#450,.T.);
#450 = EDGE_LOOP('',(#451));
#451 = ORIENTED_EDGE('',*,*,#373,.T.);
#452 = FACE_BOUND('',#453,.T.);
#453 = EDGE_LOOP('',(#454));
#454 = ORIENTED_EDGE('',*,*,#398,.T.);
#455 = PLANE('',#456);
#456 = AXIS2_PLACEMENT_3D('',#457,#458,#459);
#457 = CARTESIAN_POINT('',(-5.209295743007E-16,9.230319459916E-17,7.));
#458 = DIRECTION('',(0.,0.,1.));
#459 = DIRECTION('',(1.,0.,0.));
#460 = ADVANCED_FACE('',(#461),#472,.F.);
#461 = FACE_BOUND('',#462,.F.);
#462 = EDGE_LOOP('',(#463,#469,#470,#471));
#463 = ORIENTED_EDGE('',*,*,#464,.T.);
#464 = EDGE_CURVE('',#442,#416,#465,.T.);
#465 = LINE('',#466,#467);
#466 = CARTESIAN_POINT('',(4.,0.,7.));
#467 = VECTOR('',#468,1.);
#468 = DIRECTION('',(-0.,-0.,-1.));
#469 = ORIENTED_EDGE('',*,*,#415,.T.);
#470 = ORIENTED_EDGE('',*,*,#464,.F.);
#471 = ORIENTED_EDGE('',*,*,#441,.F.);
#472 = CYLINDRICAL_SURFACE('',#473,4.);
#473 = AXIS2_PLACEMENT_3D('',#474,#475,#476);
#474 = CARTESIAN_POINT('',(0.,0.,7.));
#475 = DIRECTION('',(0.,0.,1.));
#476 = DIRECTION('',(1.,0.,0.));
#477 = ( GEOMETRIC_REPRESENTATION_CONTEXT(3) 
GLOBAL_UNCERTAINTY_ASSIGNED_CONTEXT((#481)) GLOBAL_UNIT_ASSIGNED_CONTEXT
((#478,#479,#480)) REPRESENTATION_CONTEXT('Context #1',
  '3D Context with UNIT and UNCERTAINTY') );
#478 = ( LENGTH_UNIT() NAMED_UNIT(*) SI_UNIT(.MILLI.,.METRE.) );
#479 = ( NAMED_UNIT(*) PLANE_ANGLE_UNIT() SI_UNIT($,.RADIAN.) );
#480 = ( NAMED_UNIT(*) SI_UNIT($,.STERADIAN.) SOLID_ANGLE_UNIT() );
#481 = UNCERTAINTY_MEASURE_WITH_UNIT(LENGTH_MEASURE(1.E-07),#478,
  'distance_accuracy_value','confusion accuracy');
#482 = PRODUCT_RELATED_PRODUCT_CATEGORY('part',$,(#7));
#483 = MECHANICAL_DESIGN_GEOMETRIC_PRESENTATION_REPRESENTATION('',(#484)
  ,#477);
#484 = STYLED_ITEM('color',(#485),#15);
#485 = PRESENTATION_STYLE_ASSIGNMENT((#486,#492));
#486 = SURFACE_STYLE_USAGE(.BOTH.,#487);
#487 = SURFACE_SIDE_STYLE('',(#488));
#488 = SURFACE_STYLE_FILL_AREA(#489);
#489 = FILL_AREA_STYLE('',(#490));
#490 = FILL_AREA_STYLE_COLOUR('',#491);
#491 = COLOUR_RGB('',0.678431390124,0.709803936702,0.741176476869);
#492 = CURVE_STYLE('',#493,POSITIVE_LENGTH_MEASURE(0.1),#494);
#493 = DRAUGHTING_PRE_DEFINED_CURVE_FONT('continuous');
#494 = COLOUR_RGB('',9.803921802644E-02,9.803921802644E-02,
  9.803921802644E-02);
ENDSEC;
END-ISO-10303-21;
